<svg width="50" height="50" viewBox="0 0 50 50" fill="none" xmlns="http://www.w3.org/2000/svg">
<path d="M4.16689 22.8337C3.92503 22.7007 3.71248 22.5203 3.54196 22.3032C3.37144 22.0862 3.24646 21.837 3.17449 21.5705C3.10253 21.304 3.08506 21.0258 3.12313 20.7524C3.1612 20.479 3.25403 20.2162 3.39606 19.9795L6.52106 14.5837C6.75023 14.167 7.10439 13.8753 7.50023 13.7087L23.8127 4.54199C24.1461 4.29199 24.5627 4.16699 25.0002 4.16699C25.4377 4.16699 25.8544 4.29199 26.1877 4.54199L42.6461 13.792C43.0419 14.0003 43.3752 14.3337 43.5627 14.7503L46.5836 20.0003C47.1669 21.0003 46.8127 22.2712 45.8336 22.8337L43.7502 24.042V34.3753C43.7502 35.167 43.3127 35.8545 42.6461 36.2087L26.1877 45.4587C25.8544 45.7087 25.4377 45.8337 25.0002 45.8337C24.5627 45.8337 24.1461 45.7087 23.8127 45.4587L7.35439 36.2087C7.02039 36.0331 6.74088 35.7694 6.54621 35.4462C6.35155 35.123 6.24918 34.7526 6.25023 34.3753V22.8337C5.62523 23.1878 4.83356 23.2087 4.16689 22.8337ZM25.0002 8.64616V22.6045L37.4169 15.6253L25.0002 8.64616ZM10.4169 33.1462L22.9169 40.1878V26.2087L10.4169 19.1878V33.1462ZM39.5836 33.1462V26.4378L29.1669 32.4795C28.4794 32.8545 27.7086 32.8337 27.0836 32.5003V40.1878L39.5836 33.1462ZM28.8544 27.8337L41.9377 20.2712L40.7294 18.167L27.6461 25.7295L28.8544 27.8337Z" fill="black"/>
</svg>
