<svg width="33" height="36" viewBox="0 0 33 36" fill="none" xmlns="http://www.w3.org/2000/svg">
<path d="M17.088 11.52C17.984 12.032 18.432 12.736 18.432 13.632C18.432 14.176 18.288 14.688 18 15.168C17.424 16.16 16.704 16.656 15.84 16.656C15.392 16.656 14.912 16.512 14.4 16.224C13.92 15.936 13.472 15.568 13.056 15.12C12.64 14.64 12.016 13.856 11.184 12.768C10.448 11.744 9.872 10.976 9.456 10.464C9.648 11.008 10 11.856 10.512 13.008C11.024 14.192 11.392 15.12 11.616 15.792C11.84 16.464 11.952 17.088 11.952 17.664C11.952 18.56 11.68 19.216 11.136 19.632C10.624 20.048 10 20.256 9.264 20.256C8.496 20.256 7.84 20.048 7.296 19.632C6.784 19.216 6.528 18.56 6.528 17.664C6.528 17.088 6.64 16.464 6.864 15.792C7.088 15.12 7.472 14.176 8.016 12.96L9.024 10.512L7.296 12.768C6.592 13.728 6 14.48 5.52 15.024C5.04 15.568 4.56 15.984 4.08 16.272C3.536 16.56 3.072 16.704 2.688 16.704C2.208 16.704 1.776 16.576 1.392 16.32C1.008 16.032 0.704 15.664 0.48 15.216C0.16 14.672 0 14.144 0 13.632C0 12.8 0.448 12.112 1.344 11.568C1.856 11.28 2.448 11.072 3.12 10.944C3.824 10.784 4.8 10.64 6.048 10.512L8.832 10.176C8.448 10.112 8.032 10.064 7.584 10.032C7.136 9.968 6.656 9.888 6.144 9.792C4.832 9.632 3.824 9.488 3.12 9.36C2.416 9.232 1.824 9.024 1.344 8.736C0.448 8.224 0 7.52 0 6.624C0 6.08 0.144 5.568 0.432 5.088C1.008 4.096 1.728 3.6 2.592 3.6C3.04 3.6 3.52 3.744 4.032 4.032C4.512 4.32 4.96 4.704 5.376 5.184C5.792 5.632 6.416 6.4 7.248 7.488C7.984 8.512 8.56 9.28 8.976 9.792C8.784 9.248 8.432 8.4 7.92 7.248C7.408 6.064 7.04 5.136 6.816 4.464C6.592 3.792 6.48 3.168 6.48 2.592C6.48 1.696 6.736 1.04 7.248 0.624001C7.792 0.208 8.448 0 9.216 0C9.984 0 10.624 0.208 11.136 0.624001C11.648 1.04 11.904 1.696 11.904 2.592C11.904 3.168 11.792 3.776 11.568 4.416C11.344 5.056 10.992 5.92 10.512 7.008L9.408 9.744L11.136 7.488C11.84 6.528 12.432 5.776 12.912 5.232C13.392 4.688 13.872 4.272 14.352 3.984C14.896 3.696 15.36 3.552 15.744 3.552C16.224 3.552 16.656 3.696 17.04 3.984C17.424 4.24 17.728 4.592 17.952 5.04C18.272 5.584 18.432 6.112 18.432 6.624C18.432 7.456 17.984 8.144 17.088 8.688C16.576 8.976 15.984 9.184 15.312 9.312C14.64 9.44 13.696 9.584 12.48 9.744L9.744 10.08C11.792 10.4 12.672 10.528 12.384 10.464C13.664 10.624 14.64 10.768 15.312 10.896C16.016 11.024 16.608 11.232 17.088 11.52Z" fill="black"/>
<path d="M27.8715 9.408C29.4075 9.408 30.5755 9.76 31.3755 10.464C32.2075 11.168 32.6235 12.192 32.6235 13.536C32.6235 14.88 32.2075 15.904 31.3755 16.608C30.5755 17.312 29.4075 17.664 27.8715 17.664C26.3355 17.664 25.1515 17.312 24.3195 16.608C23.5195 15.904 23.1195 14.88 23.1195 13.536C23.1195 12.192 23.5195 11.168 24.3195 10.464C25.1515 9.76 26.3355 9.408 27.8715 9.408ZM27.8715 27.408C29.4075 27.408 30.5755 27.76 31.3755 28.464C32.2075 29.168 32.6235 30.192 32.6235 31.536C32.6235 32.88 32.2075 33.904 31.3755 34.608C30.5755 35.312 29.4075 35.664 27.8715 35.664C26.3355 35.664 25.1515 35.312 24.3195 34.608C23.5195 33.904 23.1195 32.88 23.1195 31.536C23.1195 30.192 23.5195 29.168 24.3195 28.464C25.1515 27.76 26.3355 27.408 27.8715 27.408Z" fill="black"/>
</svg>
