<svg width="50" height="50" viewBox="0 0 50 50" fill="none" xmlns="http://www.w3.org/2000/svg">
<path d="M35.416 27.0837H14.5827V22.917H35.416V27.0837ZM24.9993 4.16699C22.2635 4.16699 19.5544 4.70586 17.0268 5.75284C14.4992 6.79981 12.2025 8.33438 10.268 10.2689C6.36095 14.1759 4.16602 19.475 4.16602 25.0003C4.16602 30.5257 6.36095 35.8247 10.268 39.7317C12.2025 41.6663 14.4992 43.2008 17.0268 44.2478C19.5544 45.2948 22.2635 45.8337 24.9993 45.8337C30.5247 45.8337 35.8237 43.6387 39.7307 39.7317C43.6377 35.8247 45.8327 30.5257 45.8327 25.0003C45.8327 22.2645 45.2938 19.5554 44.2468 17.0278C43.1999 14.5001 41.6653 12.2035 39.7307 10.2689C37.7962 8.33438 35.4995 6.79981 32.9719 5.75284C30.4443 4.70586 27.7352 4.16699 24.9993 4.16699Z" fill="black"/>
</svg>
