<svg width="50" height="50" viewBox="0 0 50 50" fill="none" xmlns="http://www.w3.org/2000/svg">
<path d="M37.5006 16.6663C38.6057 16.6663 39.6655 17.1053 40.4469 17.8867C41.2283 18.6681 41.6673 19.7279 41.6673 20.833V41.6663C41.6673 42.7714 41.2283 43.8312 40.4469 44.6126C39.6655 45.394 38.6057 45.833 37.5006 45.833H12.5007C11.3956 45.833 10.3358 45.394 9.55437 44.6126C8.77297 43.8312 8.33398 42.7714 8.33398 41.6663V20.833C8.33398 19.7279 8.77297 18.6681 9.55437 17.8867C10.3358 17.1053 11.3956 16.6663 12.5007 16.6663H31.2507V12.4997C31.2507 10.8421 30.5922 9.25236 29.4201 8.08026C28.248 6.90815 26.6583 6.24967 25.0007 6.24967C23.343 6.24967 21.7533 6.90815 20.5812 8.08026C19.4091 9.25236 18.7507 10.8421 18.7507 12.4997H14.584C14.584 9.737 15.6815 7.08748 17.635 5.13398C19.5885 3.18047 22.238 2.08301 25.0007 2.08301C26.3686 2.08301 27.7231 2.35244 28.9869 2.87593C30.2507 3.39942 31.3991 4.1667 32.3663 5.13398C33.3336 6.10126 34.1009 7.24958 34.6244 8.51339C35.1479 9.7772 35.4173 11.1317 35.4173 12.4997V16.6663H37.5006ZM25.0007 35.4163C26.1057 35.4163 27.1655 34.9774 27.9469 34.196C28.7283 33.4145 29.1673 32.3547 29.1673 31.2497C29.1673 30.1446 28.7283 29.0848 27.9469 28.3034C27.1655 27.522 26.1057 27.083 25.0007 27.083C23.8956 27.083 22.8358 27.522 22.0544 28.3034C21.273 29.0848 20.834 30.1446 20.834 31.2497C20.834 32.3547 21.273 33.4145 22.0544 34.196C22.8358 34.9774 23.8956 35.4163 25.0007 35.4163Z" fill="black"/>
</svg>
