<svg width="50" height="50" viewBox="0 0 50 50" fill="none" xmlns="http://www.w3.org/2000/svg">
<path d="M34.3757 12.4997V36.458C34.3757 38.6681 33.4977 40.7878 31.9349 42.3506C30.3721 43.9134 28.2525 44.7913 26.0423 44.7913C23.8322 44.7913 21.7126 43.9134 20.1498 42.3506C18.587 40.7878 17.709 38.6681 17.709 36.458V10.4163C17.709 9.03501 18.2577 7.71025 19.2345 6.73349C20.2112 5.75674 21.536 5.20801 22.9173 5.20801C24.2987 5.20801 25.6234 5.75674 26.6002 6.73349C27.5769 7.71025 28.1257 9.03501 28.1257 10.4163V32.2913C28.1257 32.8439 27.9062 33.3738 27.5155 33.7645C27.1248 34.1552 26.5949 34.3747 26.0423 34.3747C25.4898 34.3747 24.9599 34.1552 24.5692 33.7645C24.1785 33.3738 23.959 32.8439 23.959 32.2913V12.4997H20.834V32.2913C20.834 33.6727 21.3827 34.9974 22.3595 35.9742C23.3362 36.9509 24.661 37.4997 26.0423 37.4997C27.4237 37.4997 28.7484 36.9509 29.7252 35.9742C30.7019 34.9974 31.2507 33.6727 31.2507 32.2913V10.4163C31.2507 8.2062 30.3727 6.08659 28.8099 4.52378C27.2471 2.96098 25.1275 2.08301 22.9173 2.08301C20.7072 2.08301 18.5876 2.96098 17.0248 4.52378C15.462 6.08659 14.584 8.2062 14.584 10.4163V36.458C14.584 39.4969 15.7912 42.4114 17.9401 44.5603C20.0889 46.7091 23.0034 47.9163 26.0423 47.9163C29.0813 47.9163 31.9957 46.7091 34.1446 44.5603C36.2934 42.4114 37.5007 39.4969 37.5007 36.458V12.4997H34.3757Z" fill="black"/>
</svg>
