<svg width="50" height="50" viewBox="0 0 50 50" fill="none" xmlns="http://www.w3.org/2000/svg">
<path d="M37.5007 8.33366V6.25033C37.5007 5.69779 37.2812 5.16789 36.8905 4.77719C36.4998 4.38649 35.9699 4.16699 35.4173 4.16699H10.4173C9.86478 4.16699 9.33488 4.38649 8.94418 4.77719C8.55348 5.16789 8.33398 5.69779 8.33398 6.25033V14.5837C8.33398 15.1362 8.55348 15.6661 8.94418 16.0568C9.33488 16.4475 9.86478 16.667 10.4173 16.667H35.4173C35.9699 16.667 36.4998 16.4475 36.8905 16.0568C37.2812 15.6661 37.5007 15.1362 37.5007 14.5837V12.5003H39.584V20.8337H18.7507V43.7503C18.7507 44.3029 18.9701 44.8328 19.3608 45.2235C19.7515 45.6142 20.2814 45.8337 20.834 45.8337H25.0007C25.5532 45.8337 26.0831 45.6142 26.4738 45.2235C26.8645 44.8328 27.084 44.3029 27.084 43.7503V25.0003H43.7506V8.33366H37.5007Z" fill="black"/>
</svg>
