<svg width="56" height="36" viewBox="0 0 56 36" fill="none" xmlns="http://www.w3.org/2000/svg">
<path d="M4.752 9.408C6.288 9.408 7.456 9.76 8.256 10.464C9.088 11.168 9.504 12.192 9.504 13.536C9.504 14.88 9.088 15.904 8.256 16.608C7.456 17.312 6.288 17.664 4.752 17.664C3.216 17.664 2.032 17.312 1.2 16.608C0.4 15.904 0 14.88 0 13.536C0 12.192 0.4 11.168 1.2 10.464C2.032 9.76 3.216 9.408 4.752 9.408ZM4.752 27.408C6.288 27.408 7.456 27.76 8.256 28.464C9.088 29.168 9.504 30.192 9.504 31.536C9.504 32.88 9.088 33.904 8.256 34.608C7.456 35.312 6.288 35.664 4.752 35.664C3.216 35.664 2.032 35.312 1.2 34.608C0.4 33.904 0 32.88 0 31.536C0 30.192 0.4 29.168 1.2 28.464C2.032 27.76 3.216 27.408 4.752 27.408Z" fill="black"/>
<path d="M31.3279 11.52C32.2239 12.032 32.6719 12.736 32.6719 13.632C32.6719 14.176 32.5279 14.688 32.2399 15.168C31.6639 16.16 30.9439 16.656 30.0799 16.656C29.6319 16.656 29.1519 16.512 28.6399 16.224C28.1599 15.936 27.7119 15.568 27.2959 15.12C26.8799 14.64 26.2559 13.856 25.4239 12.768C24.6879 11.744 24.1119 10.976 23.6959 10.464C23.8879 11.008 24.2399 11.856 24.7519 13.008C25.2639 14.192 25.6319 15.12 25.8559 15.792C26.0799 16.464 26.1919 17.088 26.1919 17.664C26.1919 18.56 25.9199 19.216 25.3759 19.632C24.8639 20.048 24.2399 20.256 23.5039 20.256C22.7359 20.256 22.0799 20.048 21.5359 19.632C21.0239 19.216 20.7679 18.56 20.7679 17.664C20.7679 17.088 20.8799 16.464 21.1039 15.792C21.3279 15.12 21.7119 14.176 22.2559 12.96L23.2639 10.512L21.5359 12.768C20.8319 13.728 20.2399 14.48 19.7599 15.024C19.2799 15.568 18.7999 15.984 18.3199 16.272C17.7759 16.56 17.3119 16.704 16.9279 16.704C16.4479 16.704 16.0159 16.576 15.6319 16.32C15.2479 16.032 14.9439 15.664 14.7199 15.216C14.3999 14.672 14.2399 14.144 14.2399 13.632C14.2399 12.8 14.6879 12.112 15.5839 11.568C16.0959 11.28 16.6879 11.072 17.3599 10.944C18.0639 10.784 19.0399 10.64 20.2879 10.512L23.0719 10.176C22.6879 10.112 22.2719 10.064 21.8239 10.032C21.3759 9.968 20.8959 9.888 20.3839 9.792C19.0719 9.632 18.0639 9.488 17.3599 9.36C16.6559 9.232 16.0639 9.024 15.5839 8.736C14.6879 8.224 14.2399 7.52 14.2399 6.624C14.2399 6.08 14.3839 5.568 14.6719 5.088C15.2479 4.096 15.9679 3.6 16.8319 3.6C17.2799 3.6 17.7599 3.744 18.2719 4.032C18.7519 4.32 19.1999 4.704 19.6159 5.184C20.0319 5.632 20.6559 6.4 21.4879 7.488C22.2239 8.512 22.7999 9.28 23.2159 9.792C23.0239 9.248 22.6719 8.4 22.1599 7.248C21.6479 6.064 21.2799 5.136 21.0559 4.464C20.8319 3.792 20.7199 3.168 20.7199 2.592C20.7199 1.696 20.9759 1.04 21.4879 0.624001C22.0319 0.208 22.6879 0 23.4559 0C24.2239 0 24.8639 0.208 25.3759 0.624001C25.8879 1.04 26.1439 1.696 26.1439 2.592C26.1439 3.168 26.0319 3.776 25.8079 4.416C25.5839 5.056 25.2319 5.92 24.7519 7.008L23.6479 9.744L25.3759 7.488C26.0799 6.528 26.6719 5.776 27.1519 5.232C27.6319 4.688 28.1119 4.272 28.5919 3.984C29.1359 3.696 29.5999 3.552 29.9839 3.552C30.4639 3.552 30.8959 3.696 31.2799 3.984C31.6639 4.24 31.9679 4.592 32.1919 5.04C32.5119 5.584 32.6719 6.112 32.6719 6.624C32.6719 7.456 32.2239 8.144 31.3279 8.688C30.8159 8.976 30.2239 9.184 29.5519 9.312C28.8799 9.44 27.9359 9.584 26.7199 9.744L23.9839 10.08C26.0319 10.4 26.9119 10.528 26.6239 10.464C27.9039 10.624 28.8799 10.768 29.5519 10.896C30.2559 11.024 30.8479 11.232 31.3279 11.52Z" fill="black"/>
<path d="M54.0154 11.52C54.9114 12.032 55.3594 12.736 55.3594 13.632C55.3594 14.176 55.2154 14.688 54.9274 15.168C54.3514 16.16 53.6314 16.656 52.7674 16.656C52.3194 16.656 51.8394 16.512 51.3274 16.224C50.8474 15.936 50.3994 15.568 49.9834 15.12C49.5674 14.64 48.9434 13.856 48.1114 12.768C47.3754 11.744 46.7994 10.976 46.3834 10.464C46.5754 11.008 46.9274 11.856 47.4394 13.008C47.9514 14.192 48.3194 15.12 48.5434 15.792C48.7674 16.464 48.8794 17.088 48.8794 17.664C48.8794 18.56 48.6074 19.216 48.0634 19.632C47.5514 20.048 46.9274 20.256 46.1914 20.256C45.4234 20.256 44.7674 20.048 44.2234 19.632C43.7114 19.216 43.4554 18.56 43.4554 17.664C43.4554 17.088 43.5674 16.464 43.7914 15.792C44.0154 15.12 44.3994 14.176 44.9434 12.96L45.9514 10.512L44.2234 12.768C43.5194 13.728 42.9274 14.48 42.4474 15.024C41.9674 15.568 41.4874 15.984 41.0074 16.272C40.4634 16.56 39.9994 16.704 39.6154 16.704C39.1354 16.704 38.7034 16.576 38.3194 16.32C37.9354 16.032 37.6314 15.664 37.4074 15.216C37.0874 14.672 36.9274 14.144 36.9274 13.632C36.9274 12.8 37.3754 12.112 38.2714 11.568C38.7834 11.28 39.3754 11.072 40.0474 10.944C40.7514 10.784 41.7274 10.64 42.9754 10.512L45.7594 10.176C45.3754 10.112 44.9594 10.064 44.5114 10.032C44.0634 9.968 43.5834 9.888 43.0714 9.792C41.7594 9.632 40.7514 9.488 40.0474 9.36C39.3434 9.232 38.7514 9.024 38.2714 8.736C37.3754 8.224 36.9274 7.52 36.9274 6.624C36.9274 6.08 37.0714 5.568 37.3594 5.088C37.9354 4.096 38.6554 3.6 39.5194 3.6C39.9674 3.6 40.4474 3.744 40.9594 4.032C41.4394 4.32 41.8874 4.704 42.3034 5.184C42.7194 5.632 43.3434 6.4 44.1754 7.488C44.9114 8.512 45.4874 9.28 45.9034 9.792C45.7114 9.248 45.3594 8.4 44.8474 7.248C44.3354 6.064 43.9674 5.136 43.7434 4.464C43.5194 3.792 43.4074 3.168 43.4074 2.592C43.4074 1.696 43.6634 1.04 44.1754 0.624001C44.7194 0.208 45.3754 0 46.1434 0C46.9114 0 47.5514 0.208 48.0634 0.624001C48.5754 1.04 48.8314 1.696 48.8314 2.592C48.8314 3.168 48.7194 3.776 48.4954 4.416C48.2714 5.056 47.9194 5.92 47.4394 7.008L46.3354 9.744L48.0634 7.488C48.7674 6.528 49.3594 5.776 49.8394 5.232C50.3194 4.688 50.7994 4.272 51.2794 3.984C51.8234 3.696 52.2874 3.552 52.6714 3.552C53.1514 3.552 53.5834 3.696 53.9674 3.984C54.3514 4.24 54.6554 4.592 54.8794 5.04C55.1994 5.584 55.3594 6.112 55.3594 6.624C55.3594 7.456 54.9114 8.144 54.0154 8.688C53.5034 8.976 52.9114 9.184 52.2394 9.312C51.5674 9.44 50.6234 9.584 49.4074 9.744L46.6714 10.08C48.7194 10.4 49.5994 10.528 49.3114 10.464C50.5914 10.624 51.5674 10.768 52.2394 10.896C52.9434 11.024 53.5354 11.232 54.0154 11.52Z" fill="black"/>
</svg>
