<svg width="50" height="50" viewBox="0 0 50 50" fill="none" xmlns="http://www.w3.org/2000/svg">
<path d="M5.41602 22.0628L17.4577 10.0003L20.9785 13.542C20.4785 15.3128 21.291 17.2503 22.916 18.1878V29.7295C21.666 30.4378 20.8327 31.792 20.8327 33.3337C20.8327 34.4387 21.2717 35.4985 22.0531 36.2799C22.8345 37.0613 23.8943 37.5003 24.9993 37.5003C26.1044 37.5003 27.1642 37.0613 27.9456 36.2799C28.727 35.4985 29.166 34.4387 29.166 33.3337C29.166 31.792 28.3327 30.4378 27.0827 29.7295V19.6045L31.3952 23.9587C31.2493 24.2712 31.2493 24.6253 31.2493 25.0003C31.2493 26.1054 31.6883 27.1652 32.4697 27.9466C33.2511 28.728 34.3109 29.167 35.416 29.167C36.5211 29.167 37.5809 28.728 38.3623 27.9466C39.1437 27.1652 39.5827 26.1054 39.5827 25.0003C39.5827 23.8953 39.1437 22.8354 38.3623 22.054C37.5809 21.2726 36.5211 20.8337 35.416 20.8337C35.041 20.8337 34.6868 20.8337 34.3743 20.9795L29.0202 15.6253C29.2789 14.6604 29.1786 13.6344 28.738 12.7378C28.2973 11.8412 27.5463 11.135 26.6243 10.7503C25.7285 10.417 24.791 10.3337 23.9577 10.5628L20.416 7.04199L22.0618 5.41699C23.6868 3.77116 26.3118 3.77116 27.9368 5.41699L44.5827 22.0628C46.2285 23.6878 46.2285 26.3128 44.5827 27.9378L27.9368 44.5837C26.3118 46.2295 23.6868 46.2295 22.0618 44.5837L5.41602 27.9378C3.77018 26.3128 3.77018 23.6878 5.41602 22.0628Z" fill="black"/>
</svg>
