<svg width="50" height="50" viewBox="0 0 50 50" fill="none" xmlns="http://www.w3.org/2000/svg">
<path d="M14.584 29.1667C12.2923 29.1667 10.4173 27.2917 10.4173 25C10.4173 22.7083 12.2923 20.8333 14.584 20.8333C16.8757 20.8333 18.7507 22.7083 18.7507 25C18.7507 27.2917 16.8757 29.1667 14.584 29.1667ZM26.2507 20.8333C24.584 16.0417 20.0007 12.5 14.584 12.5C7.70898 12.5 2.08398 18.125 2.08398 25C2.08398 31.875 7.70898 37.5 14.584 37.5C20.0007 37.5 24.584 33.9583 26.2507 29.1667H33.334V37.5H41.6673V29.1667H47.9173V20.8333H26.2507Z" fill="black"/>
</svg>
