<svg width="50" height="50" viewBox="0 0 50 50" fill="none" xmlns="http://www.w3.org/2000/svg">
<path d="M25 3.85449C24.4375 3.85449 23.8542 4.00033 23.375 4.27116L7.875 13.2295C6.875 13.8128 6.25 14.8962 6.25 16.0628V33.9378C6.25 35.1045 6.875 36.1878 7.875 36.7712L11.9375 39.1045C13.9167 40.0628 14.5833 40.0837 15.5 40.0837C18.4167 40.0837 20.1042 38.3128 20.1042 35.2295V17.5837C20.1042 17.3337 19.8958 17.1253 19.6458 17.1253H17.7083C17.4375 17.1253 17.2292 17.3337 17.2292 17.5837V35.2295C17.2292 36.6045 15.8125 37.9587 13.5417 36.8128L9.27083 34.3753C9.20069 34.3258 9.14333 34.2603 9.10348 34.1842C9.06364 34.1081 9.04245 34.0237 9.04167 33.9378V16.0628C9.04167 15.8753 9.125 15.7087 9.27083 15.6253L24.7708 6.68783C24.8958 6.60449 25.1042 6.60449 25.2292 6.68783L40.7292 15.6253C40.875 15.7087 40.9583 15.8753 40.9583 16.0628V33.9378C40.9583 34.1045 40.875 34.2712 40.7292 34.3753L25.2292 43.3128C25.1042 43.3962 24.8958 43.3962 24.75 43.3128L20.8333 40.9378C20.6667 40.8753 20.5 40.8545 20.3958 40.917C19.2917 41.542 19.0833 41.667 18.0625 41.9795C17.8125 42.0628 17.4167 42.2087 18.2083 42.6462L23.375 45.7087C23.875 46.0003 24.4167 46.1462 25 46.1462C25.5833 46.1462 26.125 46.0003 26.625 45.7087L42.125 36.7712C43.125 36.1878 43.75 35.1045 43.75 33.9378V16.0628C43.75 14.8962 43.125 13.8128 42.125 13.2295L26.625 4.27116C26.1458 4.00033 25.5833 3.85449 25 3.85449ZM29.1667 16.667C24.75 16.667 22.1042 18.5212 22.1042 21.6462C22.1042 25.0003 24.7292 25.9795 28.9792 26.3962C34.0417 26.8962 34.4375 27.6462 34.4375 28.6462C34.4375 30.3753 33.0417 31.1045 29.7917 31.1045C25.6667 31.1045 24.7917 30.0837 24.4792 28.042C24.4572 27.9365 24.3998 27.8417 24.3163 27.7734C24.2329 27.7052 24.1286 27.6676 24.0208 27.667H22.0208C21.7708 27.667 21.5833 27.8545 21.5833 28.1253C21.5833 30.7087 23 33.8337 29.7917 33.8337C34.6875 33.8337 37.5 31.8962 37.5 28.5212C37.5 25.167 35.25 24.292 30.4792 23.6462C25.6667 23.0212 25.1875 22.6878 25.1875 21.5628C25.1875 20.6253 25.6042 19.3753 29.1667 19.3753C32.2917 19.3753 33.5208 20.0628 34 22.2087C34.0417 22.417 34.2292 22.5628 34.4375 22.5628H36.4583C36.5625 22.5628 36.6875 22.5212 36.7708 22.417C36.8542 22.3337 36.9167 22.2087 36.875 22.0837C36.5833 18.3753 34.125 16.667 29.1667 16.667Z" fill="black"/>
</svg>
