<svg width="50" height="50" viewBox="0 0 50 50" fill="none" xmlns="http://www.w3.org/2000/svg">
<path d="M31.541 4.16699C28.7493 4.41699 25.0827 5.39616 20.5618 7.14616C19.3327 8.06283 17.916 8.95866 16.3327 9.83366V10.1045C16.4577 10.1045 16.5827 10.0212 16.7493 9.93783C16.9368 9.91699 17.0618 9.97949 17.0618 10.167L17.3327 10.0003L17.4785 9.97949L17.4993 10.1253C17.5202 10.2503 16.5202 11.0212 14.5827 12.417L14.7077 12.6878H14.5827L14.2493 12.5837C14.2493 12.6878 14.1243 12.7295 13.8327 12.7503L13.8535 12.8962L14.1868 13.2712C14.0618 13.2712 13.916 13.2503 13.7493 13.167C13.1035 13.2295 12.4993 13.7087 11.8535 14.5837L12.0202 14.8337C12.5618 14.3337 12.8743 14.0837 12.9577 14.0837L12.9993 14.4795C12.916 14.4795 12.7493 14.5837 12.5827 14.6462L12.916 15.1462C13.541 14.4378 14.291 13.8337 15.0827 13.3545C15.4785 13.4587 15.6868 13.542 15.6868 13.7087L15.9785 13.6878C18.1035 12.1045 20.2285 10.9795 22.3118 10.2712L22.3327 10.542C21.9368 11.1253 21.666 11.4587 21.5202 11.4587C21.541 11.6462 21.6243 11.8128 21.7285 11.9587C21.7702 12.3337 20.8327 14.7087 18.8952 19.1462C14.4785 29.4378 10.8118 37.042 7.85352 42.0003C7.85352 42.0837 7.91602 42.2295 8.02018 42.3962C8.74935 42.2087 9.20768 42.042 9.37435 41.8753L9.58268 41.8545L9.60352 42.1253L9.87435 42.1045L10.166 41.9378C10.166 42.042 10.2702 42.0628 10.416 42.042L10.4785 42.3128C10.4785 42.6045 10.3327 43.0212 9.99935 43.5837C9.68685 43.917 9.37435 44.6253 9.04102 45.7087V45.8337H9.31185C10.4993 44.4795 11.4577 43.167 12.041 41.8962C15.4993 40.8753 18.1452 39.8962 19.9785 38.8962C21.8118 38.7503 23.2285 38.2712 24.1868 37.5003L24.166 37.3128L23.4785 37.5003H23.3118L23.291 37.3962C24.6452 37.1878 25.5827 36.8753 26.041 36.4587C28.7285 34.4587 30.7077 33.0212 32.0618 32.167C36.2285 29.1045 38.1868 26.1462 37.9577 23.3545C37.9368 23.0628 36.9993 21.8753 35.2077 19.917C35.166 19.542 35.8118 19.0003 37.0827 18.2712L40.6868 15.0837C41.4993 14.042 41.9785 12.3753 42.1452 10.0628L42.0827 9.52116C41.9577 7.89616 40.791 6.58366 38.541 5.58366C37.2493 4.68783 34.916 4.22949 31.541 4.16699ZM35.916 5.97949C38.6035 6.08366 39.9785 6.54199 40.0618 7.39616L39.9577 7.66699L35.916 5.97949ZM33.3327 8.25033C35.1868 8.22949 36.1452 8.70866 36.2493 9.75032L36.4577 9.72949V9.04199L36.7493 9.02116C37.4993 9.37533 37.8327 9.87533 37.8743 10.417C37.916 10.8337 37.7077 11.292 37.2702 11.8545C37.0827 11.8753 36.9785 11.7503 36.9577 11.4587H36.666L36.5827 12.3128C35.416 14.1253 34.4993 15.0628 33.9577 15.1253C33.4577 15.792 33.1452 16.1462 33.0202 16.1462C32.6452 16.6045 31.6035 17.3962 29.8952 18.4795C29.3327 18.542 27.2285 19.3337 23.6243 20.917C23.4368 20.8337 23.2493 20.8337 23.041 20.8337L23.0202 20.5837C22.9785 20.042 23.2077 19.3962 23.7285 18.5837C23.9577 17.1045 24.3118 16.2503 24.6452 16.042L27.666 9.25033C27.6452 8.83366 28.2702 8.52116 29.6035 8.33366L30.041 8.25033L30.0827 8.64616C31.3743 8.43783 32.1868 8.33366 32.4993 8.33366C32.791 8.27116 33.0827 8.25033 33.3327 8.25033ZM39.5827 8.93783H39.666C39.916 8.95866 40.166 9.37533 40.4368 10.2295L40.4577 10.4795C40.3118 10.5003 40.041 10.0628 39.6452 9.18783L39.5827 8.93783ZM22.541 13.2503H22.666L22.7077 13.6462C22.5827 13.667 22.3952 13.8545 22.1868 14.2295L22.166 13.9587C22.416 13.6462 22.541 13.3962 22.541 13.2503ZM13.8952 13.4587L13.916 13.542C13.8118 13.542 13.666 13.667 13.541 13.7503L13.3535 13.7712L13.3118 13.542L13.8952 13.4587ZM21.3327 16.0837L21.3743 16.667H21.2285L21.166 16.1045L21.3327 16.0837ZM20.9785 17.0628C20.9368 17.5212 20.8327 17.7087 20.6035 17.7712L20.4577 17.792C20.6243 17.4795 20.7077 17.2712 20.6868 17.1045L20.9785 17.0628ZM20.3743 18.4795L20.3952 18.6045L20.1452 19.042L19.8743 19.0628L19.8535 18.9378C20.1243 18.917 20.2493 18.7503 20.2285 18.5003L20.3743 18.4795ZM19.791 19.792L19.6868 20.4378H19.541L19.4993 19.792H19.791ZM34.5202 20.2503L35.1035 20.6045C35.1243 20.8337 35.041 20.8962 34.8535 20.917C34.6764 20.7876 34.4677 20.7085 34.2493 20.6878L34.2285 20.2712L34.5202 20.2503ZM22.916 21.792L22.9785 22.042L22.416 22.1045L22.3952 21.8753L22.916 21.792ZM32.291 22.7295C32.666 22.917 32.8743 23.1045 32.8952 23.2503L32.916 23.3753C32.5202 23.417 32.1868 23.2087 31.8535 22.7712L32.291 22.7295ZM36.791 23.167C37.1035 23.292 37.2493 23.4378 37.2702 23.5628L37.3535 24.6253C37.2285 24.917 37.1035 25.0628 36.9577 25.0628L36.791 23.167ZM29.4993 23.292C30.9577 23.2712 32.0827 23.6045 32.8327 24.3337L32.8952 24.8753C32.291 26.7712 31.5202 27.8753 30.7285 28.2087L27.0827 31.1045C24.3743 32.8962 22.916 33.7712 22.7077 33.792C18.3952 36.167 15.7077 37.3962 14.666 37.5003H14.4993C14.6452 37.0003 16.5618 33.0628 20.2702 25.6878C21.8743 25.542 24.4993 24.7712 27.9993 23.3962L28.8535 23.3128C29.0827 23.3128 29.291 23.292 29.4993 23.292ZM24.2077 24.1462L24.2285 24.2712L23.6452 24.3128L23.6243 24.1878L24.2077 24.1462ZM15.1243 32.9378C14.9368 33.8753 14.7493 34.3753 14.5827 34.3753L14.5202 34.2295C14.4785 33.7503 14.6868 33.3337 15.1243 32.9378ZM27.4577 33.5212L27.4785 33.7712C27.4993 33.8962 27.0827 34.2295 26.2493 34.8337C23.8327 36.0212 22.416 36.8337 21.9993 37.2503C19.3743 38.167 18.0827 38.7295 18.1035 38.9378C15.7702 39.8753 14.2493 40.542 13.541 40.9587C13.3535 40.9795 13.1035 40.8962 12.7702 40.7503C12.7493 40.292 12.9368 39.8962 13.416 39.5837C13.8118 39.5837 14.2077 39.5837 14.5827 39.7712C15.0202 39.5837 15.7702 39.3128 16.8327 39.042L16.8118 38.7712L15.9577 38.8545C16.0618 38.7087 16.8952 38.3337 18.4577 37.6878L18.8952 37.6462L18.916 37.7712C18.1868 37.8337 17.7702 38.0628 17.7077 38.4587C17.7077 38.6045 17.7702 38.7087 17.9577 38.6878C18.4785 38.3128 18.7493 38.1253 18.7493 38.0628C19.791 37.8753 22.7077 36.3337 27.4577 33.5212ZM14.291 34.7712L14.3118 34.8962C14.3327 35.0837 14.2285 35.1878 14.041 35.2087V35.0837C14.0202 34.917 14.1035 34.8128 14.291 34.7712ZM20.8327 36.4587C20.9785 36.3962 21.0827 36.4587 21.0827 36.6253C20.7493 36.667 20.1035 36.9378 19.1452 37.5003H18.9993L18.9785 37.2295C19.666 37.167 20.2702 36.8962 20.7702 36.4587H20.8327ZM14.4785 38.542L14.4993 38.7087C14.3743 38.7087 14.2493 38.7712 14.0618 38.8753L13.791 38.8962C13.7702 38.7712 13.8535 38.6462 14.041 38.6045L14.4785 38.542ZM11.1452 40.2087L11.4577 40.3337C11.3327 41.167 11.1035 41.5837 10.6868 41.667C10.4185 41.5014 10.106 41.4214 9.79102 41.4378L9.74935 41.042C9.72852 40.8753 9.83268 40.7712 10.041 40.7295C10.2077 40.7087 10.3118 40.8337 10.3327 41.1045C10.8327 40.5003 11.1035 40.2087 11.1452 40.2087Z" fill="black"/>
</svg>
