<svg width="50" height="50" viewBox="0 0 50 50" fill="none" xmlns="http://www.w3.org/2000/svg">
<path d="M24.5618 23.9587H20.2493V17.0628H25.3952C28.0202 17.0628 29.4785 18.2295 29.4785 20.3753C29.4785 22.7087 27.7493 23.9587 24.5618 23.9587ZM25.3327 26.3128H20.2493V33.8962H25.5827C28.8327 33.8962 30.541 32.5837 30.541 30.0837C30.541 27.5837 28.7702 26.3128 25.3327 26.3128ZM45.8327 11.0628V38.9378C45.8327 42.7087 42.7077 45.8337 38.9368 45.8337H11.0618C7.29102 45.8337 4.16602 42.7087 4.16602 38.9378V11.0628C4.16602 7.29199 7.29102 4.16699 11.0618 4.16699H38.9368C42.7077 4.16699 45.8327 7.29199 45.8327 11.0628ZM33.3327 30.2087C33.3327 27.3337 31.416 25.2712 28.4785 24.8962V24.7712C30.5618 24.3962 32.2077 22.3128 32.2077 20.0628C32.2077 16.8337 29.7077 14.6878 26.041 14.6878H17.5618V36.2712H25.9785C30.5827 36.2712 33.3327 34.0003 33.3327 30.2087Z" fill="black"/>
</svg>
