<svg width="50" height="50" viewBox="0 0 50 50" fill="none" xmlns="http://www.w3.org/2000/svg">
<path d="M34.3742 12.667C34.3742 12.667 20.1242 16.2295 26.9575 24.0837C28.9784 26.3962 26.4367 28.4795 26.4367 28.4795C26.4367 28.4795 31.5409 25.8753 29.1659 22.542C26.9575 19.4795 25.2909 17.9587 34.3742 12.667ZM25.0617 15.167C33.4992 8.50033 29.1659 4.16699 29.1659 4.16699C30.9159 11.042 22.9992 13.1253 20.145 17.417C18.1867 20.3337 21.1034 23.4795 24.9992 27.0837C23.52 23.542 18.2909 20.5003 25.0617 15.167ZM19.52 36.3962C13.1034 38.1878 23.4367 41.8753 31.5825 38.3962C30.7909 38.0837 30.02 37.7087 29.2909 37.2712C26.4575 37.917 23.5409 38.042 20.6659 37.6462C17.9367 37.3128 19.52 36.3962 19.52 36.3962ZM30.6034 32.8962C26.9575 33.6878 23.1867 33.8753 19.4784 33.4378C16.7492 33.167 18.5409 31.8337 18.5409 31.8337C11.4575 34.1878 22.4575 36.8337 32.2909 33.9587C31.6867 33.7295 31.1034 33.3337 30.6034 32.8962ZM37.7284 39.7712C37.7284 39.7712 38.9159 40.7503 36.4575 41.5003C31.7075 42.917 16.8117 43.3545 12.6867 41.5628C11.2075 40.917 13.9992 40.0212 14.8742 39.8337C15.3534 39.7087 15.8325 39.667 16.3117 39.667C14.6659 38.542 5.62421 41.9587 11.7492 42.917C28.3534 45.6253 42.0409 41.667 37.7284 39.7712ZM32.02 29.6462C32.6242 29.2503 33.27 28.917 33.9367 28.6253C33.9367 28.6253 30.7909 29.167 27.645 29.4587C24.3117 29.792 20.9575 29.8337 17.6242 29.5837C12.7284 28.9378 20.3117 27.0837 20.3117 27.0837C18.02 27.0837 15.77 27.6253 13.7284 28.6462C9.45754 30.7295 24.3534 31.667 32.02 29.6462ZM33.895 34.6878C33.8534 34.7712 33.8117 34.8337 33.7284 34.8962C44.1659 32.167 40.3325 25.2295 35.3325 26.9587C35.0617 27.0837 34.8325 27.2503 34.6867 27.4795C34.9784 27.3753 35.27 27.292 35.5825 27.2295C38.0825 26.7295 41.6659 30.6253 33.895 34.6878ZM34.1659 44.292C27.895 45.3753 21.4784 45.4587 15.1659 44.5837C15.1659 44.5837 16.1242 45.3753 21.02 45.6878C28.52 46.167 40.0409 45.417 40.3117 41.8753C40.3742 41.8962 39.8325 43.2295 34.1659 44.292Z" fill="black"/>
</svg>
