<svg width="50" height="50" viewBox="0 0 50 50" fill="none" xmlns="http://www.w3.org/2000/svg">
<path d="M25.0007 10.4163V2.08301L14.584 12.4997L25.0007 22.9163V14.583C28.3159 14.583 31.4953 15.9 33.8395 18.2442C36.1837 20.5884 37.5007 23.7678 37.5007 27.083C37.5007 30.3982 36.1837 33.5776 33.8395 35.9218C31.4953 38.266 28.3159 39.583 25.0007 39.583C21.6854 39.583 18.506 38.266 16.1618 35.9218C13.8176 33.5776 12.5007 30.3982 12.5007 27.083H8.33398C8.33398 31.5033 10.0899 35.7425 13.2155 38.8681C16.3411 41.9937 20.5804 43.7497 25.0007 43.7497C29.4209 43.7497 33.6602 41.9937 36.7858 38.8681C39.9114 35.7425 41.6673 31.5033 41.6673 27.083C41.6673 22.6627 39.9114 18.4235 36.7858 15.2979C33.6602 12.1723 29.4209 10.4163 25.0007 10.4163Z" fill="black"/>
</svg>
