<svg width="50" height="50" viewBox="0 0 50 50" fill="none" xmlns="http://www.w3.org/2000/svg">
<path d="M43.75 34.3753C43.75 35.167 43.3125 35.8545 42.6458 36.2087L26.1875 45.4587C25.8542 45.7087 25.4375 45.8337 25 45.8337C24.5625 45.8337 24.1458 45.7087 23.8125 45.4587L7.35417 36.2087C7.02017 36.0331 6.74066 35.7694 6.54599 35.4462C6.35133 35.123 6.24896 34.7526 6.25001 34.3753V15.6253C6.25001 14.8337 6.68751 14.1462 7.35417 13.792L23.8125 4.54199C24.1458 4.29199 24.5625 4.16699 25 4.16699C25.4375 4.16699 25.8542 4.29199 26.1875 4.54199L42.6458 13.792C43.3125 14.1462 43.75 14.8337 43.75 15.6253V34.3753ZM25 8.64616L21.0625 10.8753L33.3333 17.9378L37.4167 15.6253L25 8.64616ZM12.5833 15.6253L25 22.6045L29.0833 20.3128L16.8333 13.2295L12.5833 15.6253ZM10.4167 33.1462L22.9167 40.1878V26.2087L10.4167 19.1878V33.1462ZM39.5833 33.1462V19.1878L27.0833 26.2087V40.1878L39.5833 33.1462V33.1462Z" fill="black"/>
</svg>
