<svg width="50" height="50" viewBox="0 0 50 50" fill="none" xmlns="http://www.w3.org/2000/svg">
<path d="M25.0007 18.75C23.8956 18.75 22.8358 18.311 22.0544 17.5296C21.273 16.7482 20.834 15.6884 20.834 14.5833C20.834 13.4783 21.273 12.4185 22.0544 11.6371C22.8358 10.8557 23.8956 10.4167 25.0007 10.4167C27.3132 10.4167 29.1673 12.2708 29.1673 14.5833C29.1673 15.6884 28.7283 16.7482 27.9469 17.5296C27.1655 18.311 26.1057 18.75 25.0007 18.75ZM25.0007 29.1667C23.8956 29.1667 22.8358 28.7277 22.0544 27.9463C21.273 27.1649 20.834 26.1051 20.834 25C20.834 23.8949 21.273 22.8351 22.0544 22.0537C22.8358 21.2723 23.8956 20.8333 25.0007 20.8333C27.3132 20.8333 29.1673 22.6875 29.1673 25C29.1673 26.1051 28.7283 27.1649 27.9469 27.9463C27.1655 28.7277 26.1057 29.1667 25.0007 29.1667ZM25.0007 39.5833C23.8956 39.5833 22.8358 39.1443 22.0544 38.3629C21.273 37.5815 20.834 36.5217 20.834 35.4167C20.834 34.3116 21.273 33.2518 22.0544 32.4704C22.8358 31.689 23.8956 31.25 25.0007 31.25C27.3132 31.25 29.1673 33.1042 29.1673 35.4167C29.1673 36.5217 28.7283 37.5815 27.9469 38.3629C27.1655 39.1443 26.1057 39.5833 25.0007 39.5833ZM41.6673 20.8333H35.4173V18.4583C39.0006 17.5208 41.6673 14.2917 41.6673 10.4167H35.4173V8.33333C35.4173 7.7808 35.1978 7.25089 34.8071 6.86019C34.4164 6.46949 33.8865 6.25 33.334 6.25H16.6673C16.1148 6.25 15.5849 6.46949 15.1942 6.86019C14.8035 7.25089 14.584 7.7808 14.584 8.33333V10.4167H8.33398C8.33398 14.2917 11.0007 17.5208 14.584 18.4583V20.8333H8.33398C8.33398 24.7083 11.0007 27.9375 14.584 28.875V31.25H8.33398C8.33398 35.125 11.0007 38.3542 14.584 39.2917V41.6667C14.584 42.2192 14.8035 42.7491 15.1942 43.1398C15.5849 43.5305 16.1148 43.75 16.6673 43.75H33.334C33.8865 43.75 34.4164 43.5305 34.8071 43.1398C35.1978 42.7491 35.4173 42.2192 35.4173 41.6667V39.2917C39.0006 38.3542 41.6673 35.125 41.6673 31.25H35.4173V28.875C39.0006 27.9375 41.6673 24.7083 41.6673 20.8333Z" fill="black"/>
</svg>
