<svg width="50" height="50" viewBox="0 0 50 50" fill="none" xmlns="http://www.w3.org/2000/svg">
<path d="M39.5833 31.25H31.25C31.25 32.9076 30.5915 34.4973 29.4194 35.6694C28.2473 36.8415 26.6576 37.5 25 37.5C23.3424 37.5 21.7527 36.8415 20.5806 35.6694C19.4085 34.4973 18.75 32.9076 18.75 31.25H10.4167V10.4167H39.5833V31.25ZM39.5833 6.25H10.4167C9.3116 6.25 8.25179 6.68899 7.47039 7.47039C6.68899 8.25179 6.25 9.3116 6.25 10.4167V39.5833C6.25 40.6884 6.68899 41.7482 7.47039 42.5296C8.25179 43.311 9.3116 43.75 10.4167 43.75H39.5833C40.6884 43.75 41.7482 43.311 42.5296 42.5296C43.311 41.7482 43.75 40.6884 43.75 39.5833V10.4167C43.75 9.3116 43.311 8.25179 42.5296 7.47039C41.7482 6.68899 40.6884 6.25 39.5833 6.25Z" fill="black"/>
</svg>
