<svg width="50" height="50" viewBox="0 0 50 50" fill="none" xmlns="http://www.w3.org/2000/svg">
<path d="M41.666 4.16602C41.0827 4.16602 40.6243 4.39518 40.1868 4.77018L20.3952 24.5618C20.3118 24.6452 20.2493 24.7285 15.0618 31.9785L8.33268 38.7285L7.72852 38.1035C7.29102 37.7077 6.79102 37.4993 6.24935 37.4993C5.08268 37.4993 4.16602 38.416 4.16602 39.5827C4.16602 40.1243 4.37435 40.6243 4.77018 41.0618L8.93685 45.2285C9.74935 46.0618 11.0618 46.0827 11.8952 45.291C12.7285 44.4785 12.7493 43.166 11.8952 42.2702L11.2702 41.666L17.9993 34.9368L25.4368 29.6035L45.2285 9.81185C46.041 8.99935 46.041 7.66601 45.2285 6.85352L43.1452 4.77018C42.7077 4.37435 42.2077 4.16602 41.666 4.16602ZM38.541 27.0827C37.1597 27.0827 35.8349 27.6314 34.8582 28.6082C33.8814 29.5849 33.3327 30.9097 33.3327 32.291C33.3327 33.6723 33.8814 34.9971 34.8582 35.9739C35.8349 36.9506 37.1597 37.4993 38.541 37.4993C39.9223 37.4993 41.2471 36.9506 42.2239 35.9739C43.2006 34.9971 43.7493 33.6723 43.7493 32.291C43.7493 30.9097 43.2006 29.5849 42.2239 28.6082C41.2471 27.6314 39.9223 27.0827 38.541 27.0827Z" fill="black"/>
</svg>
