<svg width="50" height="50" viewBox="0 0 50 50" fill="none" xmlns="http://www.w3.org/2000/svg">
<path d="M24.3958 35.0208C22.7292 36.6667 22.6667 39.25 24.25 40.7917L21.2292 43.75C18.0417 40.625 18.1667 35.4792 21.5 32.2083C22.6042 31.125 23.9583 30.4375 25.3333 30.0417L18.75 23.625L21.7708 20.6667L22.5417 19.9375C24.625 17.8958 24.6875 14.6667 22.7083 12.7292L19.0833 9.20833L22.125 6.25L30.7917 14.7083C32.375 16.2708 32.2917 18.8542 30.6458 20.4792L26.1042 24.8958L33.3333 31.9375L32.5208 32.75C31.4792 33.7708 29.9583 34.2917 28.5833 33.9167C27.1667 33.5417 25.5417 33.9167 24.3958 35.0208V35.0208Z" fill="black"/>
</svg>
