<svg width="50" height="50" viewBox="0 0 50 50" fill="none" xmlns="http://www.w3.org/2000/svg">
<path d="M25.0007 18.75C23.343 18.75 21.7533 19.4085 20.5812 20.5806C19.4091 21.7527 18.7507 23.3424 18.7507 25C18.7507 26.6576 19.4091 28.2473 20.5812 29.4194C21.7533 30.5915 23.343 31.25 25.0007 31.25C26.6583 31.25 28.248 30.5915 29.4201 29.4194C30.5922 28.2473 31.2507 26.6576 31.2507 25C31.2507 23.3424 30.5922 21.7527 29.4201 20.5806C28.248 19.4085 26.6583 18.75 25.0007 18.75ZM25.0007 35.4167C22.238 35.4167 19.5885 34.3192 17.635 32.3657C15.6815 30.4122 14.584 27.7627 14.584 25C14.584 22.2373 15.6815 19.5878 17.635 17.6343C19.5885 15.6808 22.238 14.5833 25.0007 14.5833C27.7633 14.5833 30.4128 15.6808 32.3663 17.6343C34.3199 19.5878 35.4173 22.2373 35.4173 25C35.4173 27.7627 34.3199 30.4122 32.3663 32.3657C30.4128 34.3192 27.7633 35.4167 25.0007 35.4167ZM25.0007 9.375C14.584 9.375 5.68815 15.8542 2.08398 25C5.68815 34.1458 14.584 40.625 25.0007 40.625C35.4173 40.625 44.3131 34.1458 47.9173 25C44.3131 15.8542 35.4173 9.375 25.0007 9.375Z" fill="black"/>
</svg>
