<?xml version="1.0" encoding="utf-8"?><!DOCTYPE svg PUBLIC "-//W3C//DTD SVG 1.1//EN" "http://www.w3.org/Graphics/SVG/1.1/DTD/svg11.dtd"><svg version="1.1" id="Contours" xmlns="http://www.w3.org/2000/svg" xmlns:xlink="http://www.w3.org/1999/xlink" x="0px" y="0px" width="1456.163452px" height="1456.163452px" viewBox="0.000003 0.000000 1456.163452 1970.545898" enable-background="new 0 0 1456.163452 1456.163452" xml:space="preserve" stroke="black" fill="none" stroke-linecap='round' stroke-linejoin='round'><path class="selected"  fill="#000000" opacity="1.000000" stroke="none" 
 	d="
M1288.706867 1491.146670 C1287.306800 1489.281197 1287.209283 1486.537346 1288.473385 1484.577188 C1290.049765 1486.154488 1290.319438 1488.867560 1289.084396 1490.724310 z"/><path class="selected"  fill="#000000" opacity="1.000000" stroke="none" 
 	d="
M1417.399244 272.674567 C1363.165829 772.741802 1308.932415 1272.809038 1254.699000 1772.876274 C1247.165346 1842.341442 1174.243086 1883.438666 1108.331412 1906.629540 C869.762780 1990.569254 602.985685 1991.878177 363.604892 1910.283458 C293.192384 1886.282833 215.283623 1842.687914 207.269069 1768.730375 C153.461092 1272.195516 99.653116 775.660658 45.845139 279.125800 C42.866299 251.637348 37.891510 220.648412 15.088251 205.011920 C-2.266718 193.111391 -3.889806 166.559671 6.335368 148.167734 C16.560543 129.775797 35.319126 117.927238 53.866505 107.986801 C151.619560 55.596221 263.052640 35.030590 373.133911 21.519616 C606.523801 -7.125811 843.409769 -7.173361 1076.811140 21.378366 C1184.653230 34.570567 1293.245288 54.307946 1391.467390 100.744668 C1427.888796 117.963712 1468.309649 153.704300 1452.729837 190.856470 C1447.492770 203.344962 1436.649015 212.575679 1429.757079 224.232884 C1421.207418 238.694003 1419.210556 255.973076 1417.399238 272.674566 M88.994439 134.220939 C74.094538 145.708326 74.327918 169.642964 84.751262 185.305689 C95.174607 200.968415 112.801841 210.098414 130.041967 217.631350 C203.020020 249.518525 282.183268 264.478888 361.040711 275.618524 C615.130546 311.512007 874.470324 310.019223 1128.130123 271.203086 C1203.209128 259.714166 1279.154349 244.501174 1345.894273 208.243281 C1357.629127 201.868071 1369.406087 194.510102 1376.775905 183.372963 C1384.145724 172.235823 1385.934582 156.385013 1377.659514 145.902963 C1341.539444 100.149594 1280.011802 84.441750 1222.766671 73.440625 C914.421767 14.184297 595.423742 10.818136 285.897063 63.554517 C216.435717 75.389167 144.797601 91.198335 88.994439 134.220940 M1321.282866 1129.805884 C1320.959227 1131.092654 1321.844579 1132.557384 1323.134328 1132.868946 C1323.428722 1131.544742 1322.569890 1130.066886 1321.273612 1129.667073 z"/></svg>