<svg width="50" height="50" viewBox="0 0 50 50" fill="none" xmlns="http://www.w3.org/2000/svg">
<path d="M37.5006 16.667H33.334V8.33366H37.5006V16.667ZM31.2507 16.667H27.084V8.33366H31.2507V16.667ZM25.0007 16.667H20.834V8.33366H25.0007V16.667ZM37.5006 4.16699H20.834L8.33398 16.667V41.667C8.33398 42.7721 8.77297 43.8319 9.55437 44.6133C10.3358 45.3947 11.3956 45.8337 12.5007 45.8337H37.5006C38.6057 45.8337 39.6655 45.3947 40.4469 44.6133C41.2283 43.8319 41.6673 42.7721 41.6673 41.667V8.33366C41.6673 7.22859 41.2283 6.16878 40.4469 5.38738C39.6655 4.60598 38.6057 4.16699 37.5006 4.16699Z" fill="black"/>
</svg>
