<svg width="56" height="36" viewBox="0 0 56 36" fill="none" xmlns="http://www.w3.org/2000/svg">
<path d="M17.088 11.52C17.984 12.032 18.432 12.736 18.432 13.632C18.432 14.176 18.288 14.688 18 15.168C17.424 16.16 16.704 16.656 15.84 16.656C15.392 16.656 14.912 16.512 14.4 16.224C13.92 15.936 13.472 15.568 13.056 15.12C12.64 14.64 12.016 13.856 11.184 12.768C10.448 11.744 9.872 10.976 9.456 10.464C9.648 11.008 10 11.856 10.512 13.008C11.024 14.192 11.392 15.12 11.616 15.792C11.84 16.464 11.952 17.088 11.952 17.664C11.952 18.56 11.68 19.216 11.136 19.632C10.624 20.048 10 20.256 9.264 20.256C8.496 20.256 7.84 20.048 7.296 19.632C6.784 19.216 6.528 18.56 6.528 17.664C6.528 17.088 6.64 16.464 6.864 15.792C7.088 15.12 7.472 14.176 8.016 12.96L9.024 10.512L7.296 12.768C6.592 13.728 6 14.48 5.52 15.024C5.04 15.568 4.56 15.984 4.08 16.272C3.536 16.56 3.072 16.704 2.688 16.704C2.208 16.704 1.776 16.576 1.392 16.32C1.008 16.032 0.704 15.664 0.48 15.216C0.16 14.672 0 14.144 0 13.632C0 12.8 0.448 12.112 1.344 11.568C1.856 11.28 2.448 11.072 3.12 10.944C3.824 10.784 4.8 10.64 6.048 10.512L8.832 10.176C8.448 10.112 8.032 10.064 7.584 10.032C7.136 9.968 6.656 9.888 6.144 9.792C4.832 9.632 3.824 9.488 3.12 9.36C2.416 9.232 1.824 9.024 1.344 8.736C0.448 8.224 0 7.52 0 6.624C0 6.08 0.144 5.568 0.432 5.088C1.008 4.096 1.728 3.6 2.592 3.6C3.04 3.6 3.52 3.744 4.032 4.032C4.512 4.32 4.96 4.704 5.376 5.184C5.792 5.632 6.416 6.4 7.248 7.488C7.984 8.512 8.56 9.28 8.976 9.792C8.784 9.248 8.432 8.4 7.92 7.248C7.408 6.064 7.04 5.136 6.816 4.464C6.592 3.792 6.48 3.168 6.48 2.592C6.48 1.696 6.736 1.04 7.248 0.624001C7.792 0.208 8.448 0 9.216 0C9.984 0 10.624 0.208 11.136 0.624001C11.648 1.04 11.904 1.696 11.904 2.592C11.904 3.168 11.792 3.776 11.568 4.416C11.344 5.056 10.992 5.92 10.512 7.008L9.408 9.744L11.136 7.488C11.84 6.528 12.432 5.776 12.912 5.232C13.392 4.688 13.872 4.272 14.352 3.984C14.896 3.696 15.36 3.552 15.744 3.552C16.224 3.552 16.656 3.696 17.04 3.984C17.424 4.24 17.728 4.592 17.952 5.04C18.272 5.584 18.432 6.112 18.432 6.624C18.432 7.456 17.984 8.144 17.088 8.688C16.576 8.976 15.984 9.184 15.312 9.312C14.64 9.44 13.696 9.584 12.48 9.744L9.744 10.08C11.792 10.4 12.672 10.528 12.384 10.464C13.664 10.624 14.64 10.768 15.312 10.896C16.016 11.024 16.608 11.232 17.088 11.52Z" fill="black"/>
<path d="M39.7755 11.52C40.6715 12.032 41.1195 12.736 41.1195 13.632C41.1195 14.176 40.9755 14.688 40.6875 15.168C40.1115 16.16 39.3915 16.656 38.5275 16.656C38.0795 16.656 37.5995 16.512 37.0875 16.224C36.6075 15.936 36.1595 15.568 35.7435 15.12C35.3275 14.64 34.7035 13.856 33.8715 12.768C33.1355 11.744 32.5595 10.976 32.1435 10.464C32.3355 11.008 32.6875 11.856 33.1995 13.008C33.7115 14.192 34.0795 15.12 34.3035 15.792C34.5275 16.464 34.6395 17.088 34.6395 17.664C34.6395 18.56 34.3675 19.216 33.8235 19.632C33.3115 20.048 32.6875 20.256 31.9515 20.256C31.1835 20.256 30.5275 20.048 29.9835 19.632C29.4715 19.216 29.2155 18.56 29.2155 17.664C29.2155 17.088 29.3275 16.464 29.5515 15.792C29.7755 15.12 30.1595 14.176 30.7035 12.96L31.7115 10.512L29.9835 12.768C29.2795 13.728 28.6875 14.48 28.2075 15.024C27.7275 15.568 27.2475 15.984 26.7675 16.272C26.2235 16.56 25.7595 16.704 25.3755 16.704C24.8955 16.704 24.4635 16.576 24.0795 16.32C23.6955 16.032 23.3915 15.664 23.1675 15.216C22.8475 14.672 22.6875 14.144 22.6875 13.632C22.6875 12.8 23.1355 12.112 24.0315 11.568C24.5435 11.28 25.1355 11.072 25.8075 10.944C26.5115 10.784 27.4875 10.64 28.7355 10.512L31.5195 10.176C31.1355 10.112 30.7195 10.064 30.2715 10.032C29.8235 9.968 29.3435 9.888 28.8315 9.792C27.5195 9.632 26.5115 9.488 25.8075 9.36C25.1035 9.232 24.5115 9.024 24.0315 8.736C23.1355 8.224 22.6875 7.52 22.6875 6.624C22.6875 6.08 22.8315 5.568 23.1195 5.088C23.6955 4.096 24.4155 3.6 25.2795 3.6C25.7275 3.6 26.2075 3.744 26.7195 4.032C27.1995 4.32 27.6475 4.704 28.0635 5.184C28.4795 5.632 29.1035 6.4 29.9355 7.488C30.6715 8.512 31.2475 9.28 31.6635 9.792C31.4715 9.248 31.1195 8.4 30.6075 7.248C30.0955 6.064 29.7275 5.136 29.5035 4.464C29.2795 3.792 29.1675 3.168 29.1675 2.592C29.1675 1.696 29.4235 1.04 29.9355 0.624001C30.4795 0.208 31.1355 0 31.9035 0C32.6715 0 33.3115 0.208 33.8235 0.624001C34.3355 1.04 34.5915 1.696 34.5915 2.592C34.5915 3.168 34.4795 3.776 34.2555 4.416C34.0315 5.056 33.6795 5.92 33.1995 7.008L32.0955 9.744L33.8235 7.488C34.5275 6.528 35.1195 5.776 35.5995 5.232C36.0795 4.688 36.5595 4.272 37.0395 3.984C37.5835 3.696 38.0475 3.552 38.4315 3.552C38.9115 3.552 39.3435 3.696 39.7275 3.984C40.1115 4.24 40.4155 4.592 40.6395 5.04C40.9595 5.584 41.1195 6.112 41.1195 6.624C41.1195 7.456 40.6715 8.144 39.7755 8.688C39.2635 8.976 38.6715 9.184 37.9995 9.312C37.3275 9.44 36.3835 9.584 35.1675 9.744L32.4315 10.08C34.4795 10.4 35.3595 10.528 35.0715 10.464C36.3515 10.624 37.3275 10.768 37.9995 10.896C38.7035 11.024 39.2955 11.232 39.7755 11.52Z" fill="black"/>
<path d="M50.559 9.408C52.095 9.408 53.263 9.76 54.063 10.464C54.895 11.168 55.311 12.192 55.311 13.536C55.311 14.88 54.895 15.904 54.063 16.608C53.263 17.312 52.095 17.664 50.559 17.664C49.023 17.664 47.839 17.312 47.007 16.608C46.207 15.904 45.807 14.88 45.807 13.536C45.807 12.192 46.207 11.168 47.007 10.464C47.839 9.76 49.023 9.408 50.559 9.408ZM50.559 27.408C52.095 27.408 53.263 27.76 54.063 28.464C54.895 29.168 55.311 30.192 55.311 31.536C55.311 32.88 54.895 33.904 54.063 34.608C53.263 35.312 52.095 35.664 50.559 35.664C49.023 35.664 47.839 35.312 47.007 34.608C46.207 33.904 45.807 32.88 45.807 31.536C45.807 30.192 46.207 29.168 47.007 28.464C47.839 27.76 49.023 27.408 50.559 27.408Z" fill="black"/>
</svg>
