<svg width="50" height="50" viewBox="0 0 50 50" fill="none" xmlns="http://www.w3.org/2000/svg">
<path d="M20.8333 18.7503C20.8333 18.1978 21.0528 17.6679 21.4435 17.2772C21.8342 16.8865 22.3641 16.667 22.9167 16.667C23.4692 16.667 23.9991 16.8865 24.3898 17.2772C24.7805 17.6679 25 18.1978 25 18.7503V28.0628L27.5208 28.3337L37.8125 32.8962C38.9167 33.3962 39.5833 34.5003 39.5833 35.7087V44.792C39.5208 46.5003 38.1667 47.8545 36.4583 47.917H22.9167C22.125 47.917 21.375 47.6045 20.8333 47.0212L10.625 38.2712L12.1667 36.667C12.5625 36.2295 13.125 36.0003 13.7083 36.0003H14.1667L20.8333 39.5837V18.7503ZM18.75 25.917V18.7503C18.75 17.6453 19.189 16.5854 19.9704 15.804C20.7518 15.0226 21.8116 14.5837 22.9167 14.5837C24.0217 14.5837 25.0815 15.0226 25.8629 15.804C26.6443 16.5854 27.0833 17.6453 27.0833 18.7503V25.917C29.5625 24.4795 31.25 21.8128 31.25 18.7503C31.25 16.5402 30.372 14.4206 28.8092 12.8578C27.2464 11.295 25.1268 10.417 22.9167 10.417C20.7065 10.417 18.5869 11.295 17.0241 12.8578C15.4613 14.4206 14.5833 16.5402 14.5833 18.7503C14.5833 21.8128 16.2708 24.4795 18.75 25.917Z" fill="black"/>
</svg>
